<svg width="204" height="129" viewBox="0 0 204 129" fill="none" xmlns="http://www.w3.org/2000/svg">
<g opacity="0.3">
<circle cx="3" cy="11" r="3" fill="#BC5DF2"/>
<circle cx="21" cy="11" r="3" fill="#BC5DF2"/>
<circle cx="39" cy="11" r="3" fill="#BC5DF2"/>
<circle cx="57" cy="11" r="3" fill="#BC5DF2"/>
<circle cx="75" cy="11" r="3" fill="#BC5DF2"/>
<circle cx="93" cy="11" r="3" fill="#BC5DF2"/>
<circle cx="111" cy="11" r="3" fill="#BC5DF2"/>
<circle cx="129" cy="11" r="3" fill="#BC5DF2"/>
<circle cx="147" cy="11" r="3" fill="#BC5DF2"/>
<circle cx="165" cy="11" r="3" fill="#BC5DF2"/>
<circle cx="183" cy="11" r="3" fill="#BC5DF2"/>
<circle cx="201" cy="11" r="3" fill="#BC5DF2"/>
<circle cx="3" cy="29" r="3" fill="#BC5DF2"/>
<circle cx="21" cy="29" r="3" fill="#BC5DF2"/>
<circle cx="39" cy="29" r="3" fill="#BC5DF2"/>
<circle cx="57" cy="29" r="3" fill="#BC5DF2"/>
<circle cx="75" cy="29" r="3" fill="#BC5DF2"/>
<circle cx="93" cy="29" r="3" fill="#BC5DF2"/>
<circle cx="111" cy="29" r="3" fill="#BC5DF2"/>
<circle cx="129" cy="29" r="3" fill="#BC5DF2"/>
<circle cx="147" cy="29" r="3" fill="#BC5DF2"/>
<circle cx="165" cy="29" r="3" fill="#BC5DF2"/>
<circle cx="183" cy="29" r="3" fill="#BC5DF2"/>
<circle cx="201" cy="29" r="3" fill="#BC5DF2"/>
<circle cx="3" cy="47" r="3" fill="#BC5DF2"/>
<circle cx="21" cy="47" r="3" fill="#BC5DF2"/>
<circle cx="39" cy="47" r="3" fill="#BC5DF2"/>
<circle cx="57" cy="47" r="3" fill="#BC5DF2"/>
<circle cx="75" cy="47" r="3" fill="#BC5DF2"/>
<circle cx="93" cy="47" r="3" fill="#BC5DF2"/>
<circle cx="111" cy="47" r="3" fill="#BC5DF2"/>
<circle cx="129" cy="47" r="3" fill="#BC5DF2"/>
<circle cx="147" cy="47" r="3" fill="#BC5DF2"/>
<circle cx="165" cy="47" r="3" fill="#BC5DF2"/>
<circle cx="183" cy="47" r="3" fill="#BC5DF2"/>
<circle cx="201" cy="47" r="3" fill="#BC5DF2"/>
<circle cx="3" cy="65" r="3" fill="#BC5DF2"/>
<circle cx="21" cy="65" r="3" fill="#BC5DF2"/>
<circle cx="39" cy="65" r="3" fill="#BC5DF2"/>
<circle cx="57" cy="65" r="3" fill="#BC5DF2"/>
<circle cx="75" cy="65" r="3" fill="#BC5DF2"/>
<circle cx="93" cy="65" r="3" fill="#BC5DF2"/>
<circle cx="111" cy="65" r="3" fill="#BC5DF2"/>
<circle cx="129" cy="65" r="3" fill="#BC5DF2"/>
<circle cx="147" cy="65" r="3" fill="#BC5DF2"/>
<circle cx="165" cy="65" r="3" fill="#BC5DF2"/>
<circle cx="183" cy="65" r="3" fill="#BC5DF2"/>
<circle cx="201" cy="65" r="3" fill="#BC5DF2"/>
<circle cx="3" cy="83" r="3" fill="#BC5DF2"/>
<circle cx="21" cy="83" r="3" fill="#BC5DF2"/>
<circle cx="39" cy="83" r="3" fill="#BC5DF2"/>
<circle cx="57" cy="83" r="3" fill="#BC5DF2"/>
<circle cx="75" cy="83" r="3" fill="#BC5DF2"/>
<circle cx="93" cy="83" r="3" fill="#BC5DF2"/>
<circle cx="111" cy="83" r="3" fill="#BC5DF2"/>
<circle cx="129" cy="83" r="3" fill="#BC5DF2"/>
<circle cx="147" cy="83" r="3" fill="#BC5DF2"/>
<circle cx="165" cy="83" r="3" fill="#BC5DF2"/>
<circle cx="183" cy="83" r="3" fill="#BC5DF2"/>
<circle cx="201" cy="83" r="3" fill="#BC5DF2"/>
<circle cx="3" cy="101" r="3" fill="#BC5DF2"/>
<circle cx="21" cy="101" r="3" fill="#BC5DF2"/>
<circle cx="39" cy="101" r="3" fill="#BC5DF2"/>
<circle cx="57" cy="101" r="3" fill="#BC5DF2"/>
<circle cx="75" cy="101" r="3" fill="#BC5DF2"/>
<circle cx="93" cy="101" r="3" fill="#BC5DF2"/>
<circle cx="111" cy="101" r="3" fill="#BC5DF2"/>
<circle cx="129" cy="101" r="3" fill="#BC5DF2"/>
<circle cx="147" cy="101" r="3" fill="#BC5DF2"/>
<circle cx="165" cy="101" r="3" fill="#BC5DF2"/>
<circle cx="183" cy="101" r="3" fill="#BC5DF2"/>
<circle cx="201" cy="101" r="3" fill="#BC5DF2"/>
<circle cx="3" cy="119" r="3" fill="#BC5DF2"/>
<circle cx="21" cy="119" r="3" fill="#BC5DF2"/>
<circle cx="39" cy="119" r="3" fill="#BC5DF2"/>
<circle cx="57" cy="119" r="3" fill="#BC5DF2"/>
<circle cx="75" cy="119" r="3" fill="#BC5DF2"/>
<circle cx="93" cy="119" r="3" fill="#BC5DF2"/>
<circle cx="111" cy="119" r="3" fill="#BC5DF2"/>
<circle cx="129" cy="119" r="3" fill="#BC5DF2"/>
<circle cx="147" cy="119" r="3" fill="#BC5DF2"/>
<circle cx="165" cy="119" r="3" fill="#BC5DF2"/>
<circle cx="183" cy="119" r="3" fill="#BC5DF2"/>
<circle cx="201" cy="119" r="3" fill="#BC5DF2"/>
</g>
<rect width="204" height="129" fill="url(#paint0_linear_1913_271)"/>
<defs>
<linearGradient id="paint0_linear_1913_271" x1="-4.42302e-06" y1="8.8626" x2="172.347" y2="106.132" gradientUnits="userSpaceOnUse">
<stop stop-opacity="0"/>
<stop stop-opacity="0"/>
<stop offset="1"/>
</linearGradient>
</defs>
</svg>
